<svg width="16" height="14" viewBox="0 0 16 14" fill="none" xmlns="http://www.w3.org/2000/svg">
<path d="M1.7747 8.12499H12.0139L7.54053 12.395C7.18303 12.7362 7.18303 13.2962 7.54053 13.6375C7.89803 13.9787 8.47553 13.9787 8.83303 13.6375L14.8739 7.87124C15.2314 7.52999 15.2314 6.97874 14.8739 6.63749L8.8422 0.862492C8.67094 0.698646 8.43842 0.606567 8.19595 0.606567C7.95347 0.606567 7.72096 0.698646 7.5497 0.862492C7.1922 1.20374 7.1922 1.75499 7.5497 2.09624L12.0139 6.37499H1.7747C1.27053 6.37499 0.858032 6.76874 0.858032 7.24999C0.858032 7.73124 1.27053 8.12499 1.7747 8.12499Z" fill="#5E6F00"/>
</svg>
